<svg width="52" height="49" viewBox="0 0 52 49" fill="none" xmlns="http://www.w3.org/2000/svg">
<path d="M42 1H37.1997C35.5027 1 33.875 1.67412 32.6745 2.87443C31.4741 4.07474 30.8001 5.70257 30.8001 7.40014V10.5999H22.6718C22.2739 7.79515 20.8281 5.245 18.625 3.46372C16.4224 1.68243 13.6261 0.801858 10.8003 1C7.93254 1.25614 5.2674 2.586 3.33883 4.72372C1.41026 6.86143 0.360543 9.649 0.400257 12.5279V37.8007C0.400257 40.7712 1.57994 43.6199 3.6804 45.7204C5.78083 47.8203 8.62969 49.0006 11.6001 49.0006H42.0001C44.5464 49.0006 46.9878 47.9894 48.7881 46.1886C50.5888 44.3883 51.6001 41.9464 51.6001 39.4006V10.6006C51.6001 8.05486 50.589 5.61286 48.7881 3.81257C46.9878 2.01186 44.5465 1.00057 42.0001 1.00057L42 1ZM11.6 42.6C10.3271 42.6 9.10611 42.0944 8.20597 41.1943C7.30586 40.2942 6.80029 39.0732 6.80029 37.8003C6.80029 36.5269 7.30587 35.3059 8.20597 34.4057C9.10609 33.5056 10.3271 33.0001 11.6 33.0001C12.8729 33.0001 14.0938 33.5056 14.994 34.4057C15.8946 35.3059 16.4002 36.5269 16.4002 37.8003C16.4002 39.0732 15.8946 40.2942 14.994 41.1943C14.0939 42.0944 12.8728 42.6 11.6 42.6V42.6ZM16.4003 27.6957C13.3674 26.2343 9.83326 26.2343 6.8004 27.6957V12.2C6.8004 10.4851 7.71501 8.90086 9.19997 8.04315C10.6854 7.186 12.5153 7.186 14.0003 8.04315C15.4853 8.90085 16.4004 10.4851 16.4004 12.2L16.4003 27.6957ZM42.0003 42.6H21.7045C22.4239 41.1023 22.7983 39.4621 22.8005 37.8003V17.0003H30.8005V29.8006C30.8005 31.4976 31.4746 33.1253 32.675 34.3257C33.8753 35.5261 35.5031 36.2001 37.2001 36.2001H41.8564C42.6711 36.1817 43.4641 36.4663 44.0812 36.9981C44.699 37.5299 45.0974 38.2716 45.2001 39.0801C45.2911 39.983 44.9942 40.8814 44.3843 41.5528C43.7738 42.2242 42.9077 42.6047 42.0003 42.6003V42.6ZM45.2 30.3523C44.1726 29.9879 43.0905 29.8009 42.0003 29.8004H37.2V7.40039H42.0003C42.849 7.40039 43.6627 7.73744 44.2631 8.33733C44.863 8.93777 45.2001 9.75139 45.2001 10.6002L45.2 30.3523Z" fill="black"/>
</svg>
