<svg width="49" height="48" viewBox="0 0 49 48" fill="none" xmlns="http://www.w3.org/2000/svg">
<path d="M48.0129 43.1999H39.173C38.995 39.822 37.6953 36.6 35.4799 34.0436C33.2639 31.4877 30.2595 29.7433 26.9409 29.0877L19.6049 13.6006H33.077C33.6239 16.0939 35.0062 18.3254 36.995 19.9259C38.9839 21.5263 41.4599 22.3996 44.0129 22.4001H48.0129V17.6004H44.0129C41.7266 17.6004 39.6133 16.3806 38.4705 14.4001C37.3271 12.4203 37.3271 9.98043 38.4705 8C39.6133 6.02014 41.7266 4.80029 44.0129 4.80029H48.0129V0H44.0129C41.4599 0.001116 38.9839 0.873886 36.995 2.47429C35.0062 4.07469 33.6239 6.30686 33.077 8.80014H18.9007C18.1083 5.69971 15.8232 3.198 12.807 2.12943C9.79032 1.06023 6.43989 1.5647 3.87175 3.4743C1.3036 5.3833 -0.143823 8.44702 0.0113196 11.6434C0.166448 14.8399 1.90418 17.7483 4.64532 19.4002L11.941 34.8002C10.0862 37.2237 9.00961 40.1523 8.85289 43.2003H0.0130352V48.0006L48.013 48L48.0129 43.1999ZM15.6129 31.3439L10.5973 20.7517C12.782 20.5257 14.8239 19.557 16.3808 18.0079L21.6129 29.0079C19.4683 29.346 17.422 30.1429 15.6129 31.3439ZM9.61289 6.39957C10.8858 6.39957 12.1068 6.90516 13.0069 7.80583C13.9076 8.70594 14.4131 9.92697 14.4131 11.1998C14.4131 12.4727 13.9076 13.6937 13.0069 14.5938C12.1068 15.4939 10.8857 15.9995 9.61289 15.9995C8.34001 15.9995 7.11903 15.4939 6.21889 14.5938C5.31878 13.6937 4.81321 12.4727 4.81321 11.1998C4.81321 9.92694 5.31879 8.70597 6.21889 7.80583C7.11901 6.90516 8.34003 6.39957 9.61289 6.39957V6.39957ZM24.0129 33.5996C26.6312 33.6018 29.1519 34.5912 31.0726 36.3707C32.9928 38.1503 34.1713 40.5889 34.3729 43.1994H13.6529C13.8544 40.589 15.0329 38.1503 16.9532 36.3707C18.8739 34.5911 21.3946 33.6017 24.0129 33.5996Z" fill="black"/>
</svg>
