<svg width="464" height="464" viewBox="0 0 464 464" fill="none" xmlns="http://www.w3.org/2000/svg">
<path d="M82.3333 463.8H381C402.781 463.8 423.672 455.144 439.079 439.743C454.48 424.336 463.136 403.445 463.136 381.664V82.9973C463.136 61.216 454.48 40.3253 439.079 24.9187C423.672 9.51733 402.781 0.861328 381 0.861328H82.3333C60.5519 0.861328 39.6613 9.51759 24.2546 24.9187C8.85327 40.3253 0.197266 61.216 0.197266 82.9973V381.664C0.197266 403.445 8.85353 424.336 24.2546 439.743C39.6613 455.144 60.5519 463.8 82.3333 463.8ZM44.9999 381.664V329.399H149.531V418.997H82.3333C72.4322 418.997 62.9373 415.065 55.9319 408.065C48.9319 401.06 44.9997 391.565 44.9997 381.664L44.9999 381.664ZM44.9999 284.596V194.997H149.531V284.596H44.9999ZM381 418.996H194.333V194.996H418.333V381.663C418.333 391.564 414.401 401.059 407.401 408.064C400.396 415.064 390.901 418.996 381 418.996L381 418.996ZM82.3333 45.6626H381C390.901 45.6626 400.396 49.5949 407.401 56.5949C414.401 63.6001 418.334 73.0949 418.334 82.9962V150.194H45.0002V82.9962C45.0002 73.0952 48.9325 63.6003 55.9325 56.5949C62.9377 49.5949 72.4325 45.6626 82.3338 45.6626H82.3333Z" fill="black"/>
</svg>
