<svg width="50" height="45" viewBox="0 0 50 45" fill="none" xmlns="http://www.w3.org/2000/svg">
<path d="M40.0008 0H15.003C12.3508 0 9.8079 1.01172 7.93216 2.812C6.05703 4.61229 5.00384 7.05414 5.00384 9.6V33.2086L1.47111 36.6003H1.47053C0.53009 37.4998 0.00116253 38.722 1.92032e-06 39.9964C-0.00116048 41.2704 0.525433 42.4931 1.46413 43.3943C2.40283 44.2955 3.67629 44.8017 5.00386 44.8005H40.0009C42.6524 44.8005 45.1959 43.7888 47.0711 41.9885C48.9467 40.1883 50 37.7464 50 35.2005V9.60054C50 7.05483 48.9468 4.61283 47.0711 2.81254C45.1959 1.01226 42.6526 0.000542777 40.0009 0.000542777L40.0008 0ZM45.0007 35.2L45.0001 35.2006C45.0001 36.4734 44.4735 37.6944 43.536 38.5946C42.5985 39.4947 41.3267 40.0002 40.0009 40.0002H5.00389L10.0038 35.2L10.0032 9.59996C10.0032 8.32707 10.5298 7.1061 11.4679 6.20596C12.4054 5.30584 13.6772 4.80027 15.003 4.80027H40.0009C41.3267 4.80027 42.5984 5.30586 43.536 6.20596C44.4735 7.10607 45.0001 8.3271 45.0001 9.59996L45.0007 35.2Z" fill="black"/>
<path d="M16.6697 14.4H38.3345V19.2003H16.6697V14.4Z" fill="black"/>
<path d="M16.6697 25.6H38.3345V30.4003H16.6697V25.6Z" fill="black"/>
</svg>
