<svg width="75" height="75" viewBox="0 0 75 75" fill="none" xmlns="http://www.w3.org/2000/svg">
<path d="M0 50.8065V58.0645H9.77419C10.0368 59.8705 10.8758 61.5433 12.1662 62.8338C13.4567 64.1242 15.1295 64.9632 16.9355 65.2258V75H24.1935V65.3226H33.871V75H41.129V65.3226H50.8065V75H58.0645V65.2258C59.8705 64.9632 61.5433 64.1242 62.8338 62.8338C64.1242 61.5433 64.9632 59.8705 65.2258 58.0645H75V50.8065H65.3226V41.129H75V33.871H65.3226V24.1935H75V16.9355H65.2258C64.9632 15.1295 64.1242 13.4567 62.8338 12.1662C61.5433 10.8758 59.8705 10.0368 58.0645 9.77419V0H50.8065V9.67742H41.129V0H33.871V9.67742H24.1935V0H16.9355V9.77419C15.1295 10.0368 13.4567 10.8758 12.1662 12.1662C10.8758 13.4567 10.0368 15.1295 9.77419 16.9355H0V24.1935H9.67742V33.871H0V41.129H9.67742V50.8065H0ZM16.9355 41.129V18.1452C16.9355 17.8243 17.0629 17.5166 17.2898 17.2898C17.5166 17.0629 17.8243 16.9355 18.1452 16.9355H56.8548C57.1757 16.9355 57.4834 17.0629 57.7102 17.2898C57.9371 17.5166 58.0645 17.8243 58.0645 18.1452V56.8548C58.0645 57.1757 57.9371 57.4834 57.7102 57.7102C57.4834 57.9371 57.1757 58.0645 56.8548 58.0645H18.1452C17.8243 58.0645 17.5166 57.9371 17.2898 57.7102C17.0629 57.4834 16.9355 57.1757 16.9355 56.8548V41.129Z" fill="black"/>
</svg>