<svg width="50" height="50" viewBox="0 0 50 50" fill="none" xmlns="http://www.w3.org/2000/svg">
<path d="M7.01647 48.2076C9.21781 47.072 11.668 46.452 14.1663 46.3996C16.6653 46.452 19.1154 47.072 21.3162 48.2076L23.5077 49.2634H23.5083C24.4471 49.7148 25.5526 49.7148 26.4915 49.2634L28.683 48.2076H28.6836C30.8843 47.072 33.3344 46.452 35.8334 46.3996C38.3318 46.452 40.7819 47.072 42.9833 48.2076C44.8876 49.1222 46.9871 49.5988 49.1164 49.5999H50V17.2242L45.9665 15.2883V15.2877C43.3304 13.9741 40.4565 13.1566 37.5 12.8799V11.9999C37.5 7.713 35.1173 3.75157 31.25 1.60757C27.3827 -0.535857 22.6173 -0.535857 18.75 1.60757C14.8827 3.75157 12.5 7.713 12.5 11.9999V12.8799C9.54419 13.1544 6.67024 13.9692 4.03348 15.28L0 17.2242V49.5999H0.883557C3.01287 49.5988 5.11243 49.1222 7.01674 48.2076L7.01647 48.2076ZM45.0001 20.1919V43.8161C42.1651 42.4049 39.0267 41.6464 35.8337 41.6001C32.9505 41.6325 30.1086 42.2603 27.5004 43.44V19.7914L27.9422 19.5833C30.3731 18.3344 33.0773 17.6547 35.8337 17.5994C38.5897 17.6519 41.2937 18.3293 43.7252 19.5754L45.0001 20.1919ZM25.0001 4.80043C26.9892 4.80043 28.8971 5.5588 30.3032 6.90929C31.7099 8.25973 32.5 10.0907 32.5 12.0003V13.0806C30.133 13.4875 27.8409 14.2285 25.7001 15.2804L25.0002 15.6163L24.3004 15.2804C22.1594 14.2285 19.8675 13.4874 17.5005 13.0806V12.0003C17.5005 10.0907 18.2905 8.25972 19.6972 6.90929C21.1034 5.55884 23.0112 4.80043 25.0004 4.80043H25.0001ZM5.0001 20.1919L6.27486 19.5836V19.5842C8.70582 18.3353 11.41 17.6556 14.1664 17.6003C16.9223 17.6528 19.6264 18.3302 22.0579 19.5763L22.4997 19.7844V43.4402C19.8915 42.2605 17.0495 41.6327 14.1664 41.6003C10.9733 41.6466 7.83495 42.405 4.99998 43.8163L5.0001 20.1919Z" fill="black"/>
</svg>
