<svg width="50" height="50" viewBox="0 0 50 50" fill="none" xmlns="http://www.w3.org/2000/svg">
<path d="M40.5177 0.000461795H31.8969V10.3453H20.6898C20.6898 6.6494 18.7179 3.23388 15.517 1.38595C12.3167 -0.461982 8.3731 -0.461982 5.17217 1.38595C1.97185 3.23388 0 6.6494 0 10.3453V39.656C0.00180406 42.2496 0.977182 44.7475 2.73372 46.655C4.48959 48.5631 6.89864 49.7417 9.48257 49.9581V50.0008H40.5174C43.0322 50.0008 45.4442 49.002 47.223 47.2239C49.0012 45.445 50 43.0331 50 40.5183V39.6559V9.48314C50 6.96834 49.0012 4.55636 47.223 2.77755C45.4442 0.999357 43.0322 0.00057572 40.5174 0.00057572L40.5177 0.000461795ZM10.345 44.8286C8.97329 44.8286 7.65758 44.2838 6.68758 43.3132C5.71702 42.3433 5.1722 41.0275 5.1722 39.6559C5.1722 38.2842 5.71702 36.9685 6.68758 35.9985C7.65755 35.0285 8.97332 34.4837 10.345 34.4837C11.7166 34.4837 13.0323 35.0285 14.0023 35.9985C14.9723 36.9684 15.5171 38.2842 15.5171 39.6559C15.5171 41.0275 14.9723 42.3432 14.0023 43.3132C13.0324 44.2838 11.7166 44.8286 10.345 44.8286V44.8286ZM15.5177 12.9317L15.5171 30.7074C13.9477 29.791 12.1629 29.3081 10.345 29.3081C8.52706 29.3081 6.7424 29.791 5.17218 30.7074V10.3454C5.17218 8.49749 6.15837 6.78965 7.75858 5.86599C9.35881 4.94173 11.3305 4.94173 12.9314 5.86599C14.5316 6.78965 15.5171 8.49749 15.5171 10.3454L15.5177 12.9317ZM40.5181 44.8286H19.294C20.2086 43.2585 20.6909 41.4731 20.6903 39.6558V15.5176H31.8975V36.2075H40.5183C42.0583 36.2075 43.481 37.0289 44.2507 38.3627C45.0211 39.6965 45.0211 41.3393 44.2507 42.6731C43.481 44.0069 42.0583 44.8283 40.5183 44.8283L40.5181 44.8286ZM44.8284 32.07C43.4941 31.3869 42.0165 31.0321 40.5181 31.0351H37.0694V5.17268H40.5181C41.6612 5.17268 42.7575 5.62669 43.5657 6.43549C44.3745 7.24369 44.8285 8.33991 44.8285 9.48309L44.8284 32.07Z" fill="black"/>
</svg>
