<svg width="50" height="52" viewBox="0 0 50 52" fill="none" xmlns="http://www.w3.org/2000/svg">
<path d="M35.7176 8.06433H30.6447V5.64489C30.6447 4.14751 30.0502 2.71192 28.9916 1.65319C27.933 0.594456 26.4974 0 24.9999 0H5.64546C4.14809 0 2.71249 0.594585 1.65376 1.65319C0.595089 2.71186 0 4.14737 0 5.64489V21.7735C0.00224995 22.0436 0.0241885 22.313 0.0646901 22.5802H0V41.9346H0.0405017C0.0405017 42.2007 0 42.4667 0 42.7413C0.0118129 45.6113 1.41193 48.2985 3.75769 49.9534C6.10282 51.6077 9.10448 52.0252 11.8125 51.0733C14.5205 50.1216 16.6007 47.9188 17.395 45.1602H32.605C33.3992 47.9188 35.4795 50.1216 38.1875 51.0733C40.8955 52.0251 43.897 51.6077 46.2423 49.9534C48.588 48.2985 49.9882 45.6113 50 42.7413C50 42.4673 50 42.2007 49.9595 41.9346H50V24.3702L43.4758 12.6287C42.7074 11.2449 41.5829 10.0923 40.2188 9.28947C38.8547 8.48676 37.3004 8.06374 35.7181 8.0643L35.7176 8.06433ZM30.6447 21.7735V12.9025H35.7176C36.436 12.9025 37.1419 13.0949 37.7618 13.4594C38.3811 13.8233 38.8919 14.3471 39.2412 14.9753L43.4669 22.5802H30.5637H30.5642C30.6104 22.3135 30.6374 22.0441 30.6447 21.7735L30.6447 21.7735ZM4.83889 5.64489C4.83889 5.19936 5.20002 4.83822 5.64555 4.83822H12.9032V14.5159H17.742V4.83822H24.9997C25.2134 4.83822 25.4187 4.92316 25.57 5.07448C25.7214 5.2258 25.8063 5.43112 25.8063 5.64487V21.7735C25.8063 21.9873 25.7214 22.1926 25.57 22.3439C25.4187 22.4952 25.2134 22.5802 24.9997 22.5802H5.64526C5.19974 22.5802 4.8386 22.219 4.8386 21.7735L4.83889 5.64489ZM8.87105 46.773C7.80169 46.773 6.7762 46.3477 6.01959 45.5917C5.26356 44.8356 4.83886 43.8102 4.83886 42.7408C4.83886 41.6714 5.26356 40.6454 6.01959 39.8893C6.77618 39.1333 7.80166 38.7086 8.87105 38.7086C9.94044 38.7086 10.9659 39.1333 11.7225 39.8893C12.4785 40.6454 12.9032 41.6714 12.9032 42.7408C12.9032 43.8101 12.4785 44.8356 11.7225 45.5917C10.9659 46.3477 9.94044 46.773 8.87105 46.773ZM41.1284 46.773C40.059 46.773 39.0335 46.3477 38.2769 45.5917C37.5209 44.8356 37.0962 43.8102 37.0962 42.7408C37.0962 41.6714 37.5209 40.6454 38.2769 39.8893C39.0335 39.1333 40.059 38.7086 41.1284 38.7086C42.1978 38.7086 43.2232 39.1333 43.9798 39.8893C44.7359 40.6454 45.1606 41.6714 45.1606 42.7408C45.1606 43.8101 44.7359 44.8356 43.9798 45.5917C43.2232 46.3477 42.1978 46.773 41.1284 46.773ZM45.1605 34.8458C42.7974 33.6426 40.0202 33.5599 37.5901 34.6197C35.1595 35.6795 33.3307 37.771 32.6045 40.3215H17.3946C16.6684 37.771 14.8397 35.6796 12.409 34.6197C9.97889 33.5599 7.20174 33.6426 4.8386 34.8458V27.4183H45.1602L45.1605 34.8458Z" fill="black"/>
</svg>
