<svg width="49" height="49" viewBox="0 0 49 49" fill="none" xmlns="http://www.w3.org/2000/svg">
<path d="M3.3924 44.9998L20.8967 27.4955L27.2008 33.7996H27.2003C28.1009 34.7009 29.3224 35.2076 30.5964 35.2076C31.8704 35.2076 33.092 34.7009 33.9926 33.7996L43.5924 24.1998C44.4936 23.2997 45.0004 22.0776 45.0004 20.8036C45.0004 19.5296 44.4936 18.3081 43.5924 17.4079L37.2883 11.1038L41.8966 6.4955L38.5048 3.10378L33.8966 7.71207L27.5924 1.40793C26.6917 0.5067 25.4703 0 24.1963 0C22.9223 0 21.7007 0.5067 20.8006 1.40793L11.2007 11.0078H11.2001C10.2989 11.9079 9.79277 13.1299 9.79277 14.4039C9.79277 15.6779 10.2989 16.8995 11.2001 17.7996L17.5043 24.1038L0 41.6081L3.3924 44.9998ZM24.1924 4.80836L40.1924 20.8084L30.5925 30.4082L14.5925 14.4082L24.1924 4.80836Z" fill="black"/>
<path d="M20.9924 43.2069H48.1924V48.0072H20.9924V43.2069Z" fill="black"/>
</svg>
