<svg width="50" height="48" viewBox="0 0 50 48" fill="none" xmlns="http://www.w3.org/2000/svg">
<path d="M25.0005 32.7999C27.3854 32.7999 29.6727 31.8724 31.3596 30.2223C33.0459 28.5716 33.9937 26.3333 33.9937 23.9996C33.9937 21.6659 33.0459 19.4276 31.3596 17.7769C29.6727 16.1267 27.3854 15.1993 25.0005 15.1993C22.6156 15.1993 20.3283 16.1267 18.6414 17.7769C16.9551 19.4276 16.0073 21.6659 16.0073 23.9996C16.0073 26.3333 16.9551 28.5716 18.6414 30.2223C20.3283 31.8724 22.6156 32.7999 25.0005 32.7999ZM25.0005 19.9996C26.0846 19.9996 27.1242 20.4209 27.8912 21.1709C28.6576 21.9214 29.0882 22.9387 29.0882 23.9996C29.0882 25.0605 28.6576 26.0777 27.8912 26.8283C27.1242 27.5783 26.0846 27.9996 25.0005 27.9996C23.9164 27.9996 22.8768 27.5783 22.1098 26.8283C21.3433 26.0778 20.9128 25.0605 20.9128 23.9996C20.9128 22.9387 21.3433 21.9215 22.1098 21.1709C22.8768 20.4209 23.9164 19.9996 25.0005 19.9996Z" fill="black"/>
<path d="M0 29.5999L2.1088 33.2321L5.37864 38.7763L7.52117 42.4001L11.4697 40.8003L13.9225 39.8243C14.7345 40.3656 15.587 40.8472 16.4733 41.264L16.8491 43.8483L17.4787 48H32.5213L33.1264 43.88L33.5022 41.2957C34.3884 40.8789 35.2409 40.3973 36.053 39.856L38.5058 40.832L42.4788 42.4001L44.6208 38.7679L47.8906 33.2237L50 29.5999L46.6566 27.0317L44.5637 25.4319C44.6019 24.9575 44.6207 24.4798 44.6207 24C44.6207 23.5202 44.6019 23.0374 44.5637 22.5519L46.6566 20.952L50 18.4001L47.8912 14.7679L44.6214 9.22371L42.4788 5.59986L38.5303 7.19971L36.0775 8.17572C35.2655 7.63442 34.413 7.15283 33.5267 6.736L33.1509 4.15172L32.5213 0H17.4787L16.8736 4.12L16.4978 6.70429C15.6116 7.12114 14.7591 7.60273 13.947 8.144L11.4942 7.168L7.52117 5.59986L5.37923 9.23214L2.10938 14.7763L0 18.4001L3.34342 20.9683L5.43631 22.5681C5.3981 23.0425 5.37928 23.5202 5.37928 24C5.37928 24.4798 5.3981 24.9626 5.43631 25.4481L3.34342 27.048L0 29.5999ZM10.2841 24C10.2887 22.8265 10.4398 21.6579 10.7341 20.5201L6.36874 17.168L9.63858 11.6239L14.7807 13.64C16.5051 12.0111 18.61 10.8197 20.9122 10.1679L21.73 4.80014H28.2704L29.0882 10.1679H29.0876C31.4023 10.8169 33.5191 12.0116 35.2517 13.6477L40.3938 11.6316L43.6637 17.1757L39.2983 20.5279H39.2989C39.9 22.8107 39.9 25.2053 39.2989 27.4877L43.6642 30.8399L40.3944 36.384L35.2522 34.3679H35.2517C33.5175 35.9984 31.4006 37.1876 29.0876 37.8321L28.2698 43.1999H21.73L20.9122 37.8321C18.5976 37.1831 16.4808 35.9884 14.7482 34.3523L9.60604 36.3684L6.33619 30.8243L10.7015 27.4721H10.701C10.4187 26.3354 10.2784 25.1697 10.2841 24H10.2841Z" fill="black"/>
</svg>
