<svg xmlns="http://www.w3.org/2000/svg" xmlns:xlink="http://www.w3.org/1999/xlink" version="1.1" x="0px" y="0px" viewBox="0 0 68 85" style="enable-background:new 0 0 68 68;" xml:space="preserve"><g><g><path d="M16.6,16.5L15.4,15c2.7-2.1,5.6-3.7,8.8-4.8l0.7,1.9C21.9,13.1,19.1,14.6,16.6,16.5z"/></g><g><path d="M6,38.5H4c0-7.7,2.9-15.1,8.3-20.7l1.4,1.4C8.7,24.4,6,31.3,6,38.5z"/></g><g><path d="M64,38.5h-2c0-11.9-7.6-22.6-18.8-26.5l0.7-1.9C55.9,14.3,64,25.7,64,38.5z"/></g><g><path d="M31.3,63.5c-0.5,0-1-0.4-1-0.9L30,58.4c-0.4-0.1-0.8-0.2-1.2-0.3l-2.1,3.7c-0.3,0.5-0.8,0.6-1.3,0.4l-4.9-2.5    c-0.5-0.2-0.7-0.8-0.5-1.3l1.7-3.9c-0.3-0.3-0.6-0.5-0.9-0.8L17.2,56c-0.4,0.3-1,0.2-1.4-0.2l-3.3-4.4c-0.3-0.4-0.2-1,0.2-1.4    l3.2-2.7c-0.2-0.4-0.3-0.7-0.5-1.1l-4.2,0.5c-0.5,0.1-1-0.3-1.1-0.8l-1-5.4c-0.1-0.5,0.2-1,0.8-1.1l4.9-1.2l0.2,0.7H16l0,0.3    c0,0.5-0.3,0.9-0.8,1L11.3,41l0.6,3.6l4-0.5c0.5-0.1,0.9,0.2,1.1,0.7c0.3,0.8,0.6,1.6,1,2.3c0.2,0.4,0.1,0.9-0.2,1.2l-3.1,2.6    l2.2,2.9l3.4-2.2c0.4-0.3,0.9-0.2,1.2,0.1c0.6,0.6,1.3,1.1,2,1.6c0.4,0.3,0.5,0.8,0.3,1.2l-1.6,3.7l3.3,1.6l2-3.5    c0.2-0.4,0.7-0.6,1.2-0.5c0.8,0.2,1.6,0.4,2.5,0.6c0.5,0.1,0.8,0.5,0.8,0.9l0.2,4l3.6,0l0.2-4c0-0.5,0.4-0.9,0.8-0.9    c0.8-0.1,1.7-0.3,2.5-0.6c0.4-0.1,0.9,0,1.2,0.5l2,3.5l3.3-1.6l-1.6-3.7c-0.2-0.4-0.1-0.9,0.3-1.2c0.7-0.5,1.3-1.1,2-1.6    c0.3-0.3,0.9-0.4,1.2-0.1l3.4,2.2l2.2-2.9l-3.1-2.6C49.8,48,49.7,47.5,50,47c0.4-0.8,0.7-1.5,1-2.4c0.2-0.4,0.6-0.7,1.1-0.7l4,0.5    l0.6-3.6L52.7,40c-0.5-0.1-0.8-0.5-0.8-1l0-0.2H53l0.2-0.7l4.9,1.1c0.5,0.1,0.8,0.6,0.8,1.1l-1,5.4c-0.1,0.5-0.6,0.9-1.1,0.8    l-4.2-0.5c-0.2,0.4-0.3,0.8-0.5,1.1l3.2,2.7c0.4,0.3,0.5,0.9,0.2,1.4l-3.3,4.4c-0.3,0.4-0.9,0.5-1.4,0.2l-3.5-2.3    c-0.3,0.3-0.6,0.5-0.9,0.8l1.7,3.9c0.2,0.5,0,1.1-0.5,1.3l-4.9,2.5c-0.5,0.2-1.1,0.1-1.3-0.4l-2.1-3.6c-0.4,0.1-0.8,0.2-1.2,0.3    l-0.2,4.2c0,0.5-0.5,0.9-1,0.9L31.3,63.5C31.3,63.5,31.3,63.5,31.3,63.5z"/></g><g><path d="M34,48.8c-5.5,0-10-4.5-10-10h2c0,4.4,3.6,8,8,8s8-3.6,8-8h2C44,44.3,39.5,48.8,34,48.8z"/></g><g><rect x="2" y="37.8" width="64" height="2"/></g><g><path d="M43.9,17.6l-2-0.2l1-11H25.1l1,11l-2,0.2L23,5.6c0-0.3,0.1-0.6,0.3-0.8c0.2-0.2,0.5-0.3,0.7-0.3h20c0.3,0,0.5,0.1,0.7,0.3    C44.9,5,45,5.3,45,5.6L43.9,17.6z"/></g><g><path d="M41,39.8H27c-0.5,0-0.9-0.4-1-0.9L25.4,32l2-0.2l0.5,5.9h12.2l0.5-5.9l2,0.2L42,38.9C41.9,39.4,41.5,39.8,41,39.8z"/></g><g><path d="M34,36c-6.6,0-12-5.4-12-12c0-5,3-9.4,7.6-11.2l0.7,1.9C26.5,16.2,24,19.8,24,24c0,5.5,4.5,10,10,10s10-4.5,10-10    s-4.5-10-10-10v-2c6.6,0,12,5.4,12,12S40.6,36,34,36z"/></g><g><path d="M34,32c-4.4,0-8-3.6-8-8s3.6-8,8-8s8,3.6,8,8c0,1.4-0.4,2.8-1.1,4l-1.7-1c0.5-0.9,0.8-1.9,0.8-3c0-3.3-2.7-6-6-6    s-6,2.7-6,6s2.7,6,6,6c0.9,0,1.8-0.2,2.6-0.6l0.9,1.8C36.4,31.7,35.2,32,34,32z"/></g></g></svg>