<svg xmlns="http://www.w3.org/2000/svg" viewBox="0 0 64 80" x="0px" y="0px"><path d="M48.337,44.777a1,1,0,0,0-.047-.179L43.942,32.652a20.549,20.549,0,0,0,4.983-5.087,1,1,0,1,0-1.65-1.13,18.528,18.528,0,0,1-4.046,4.258l-3.611-9.922A8.968,8.968,0,0,0,35,7.525V3a1,1,0,0,0-1-1H30a1,1,0,0,0-1,1V7.525a8.968,8.968,0,0,0-4.618,13.246l-3.611,9.922a18.528,18.528,0,0,1-4.046-4.258,1,1,0,1,0-1.65,1.13,20.549,20.549,0,0,0,4.983,5.087L15.71,44.6a1,1,0,0,0-.047.179l-2.65,16.06a1,1,0,0,0,.645,1.1A1.023,1.023,0,0,0,14,62a1,1,0,0,0,.861-.491L23.151,47.5a1.1,1.1,0,0,0,.078-.167l4.14-11.37a20.237,20.237,0,0,0,9.262,0l4.14,11.37a1.1,1.1,0,0,0,.078.167l8.29,14.009A1,1,0,0,0,50,62a1.023,1.023,0,0,0,.342-.06,1,1,0,0,0,.645-1.1ZM34.628,24.606A8.978,8.978,0,0,0,38.1,22.6l.044-.025,3.379,9.284a18.525,18.525,0,0,1-3.649,1.679l-3.25-8.927ZM31,7.056V4h2V7.056c-.011,0-.023,0-.034,0a8.667,8.667,0,0,0-1.932,0C31.023,7.055,31.011,7.054,31,7.056ZM32,9a7,7,0,1,1-7,7A7.008,7.008,0,0,1,32,9ZM25.855,22.572l.044.025a8.978,8.978,0,0,0,3.473,2.009l0,0-3.25,8.927a18.525,18.525,0,0,1-3.649-1.679ZM21.382,46.561,15.854,55.9l1.768-10.708,4.161-11.433a20.467,20.467,0,0,0,3.658,1.652ZM32,34.5a18.46,18.46,0,0,1-3.941-.433l3.313-9.1c.208.015.416.032.628.032s.42-.017.628-.032l3.313,9.1A18.46,18.46,0,0,1,32,34.5ZM42.618,46.561,38.559,35.413a20.467,20.467,0,0,0,3.658-1.652l4.161,11.433L48.146,55.9Z"/></svg>