<svg xmlns="http://www.w3.org/2000/svg" xmlns:xlink="http://www.w3.org/1999/xlink" version="1.1" x="0px" y="0px" viewBox="0 0 128 160" enable-background="new 0 0 128 128" xml:space="preserve"><g><path d="M121.908,61.727h-6.116l-6.383-23.106c-0.18-0.65-0.771-1.101-1.446-1.101H83.537v-6.707c0-3.033-2.468-5.5-5.5-5.5H24.279   c-3.032,0-5.5,2.467-5.5,5.5V36H6c-0.828,0-1.5,0.671-1.5,1.5S5.172,39,6,39h12.779v40.772c0,0.013-0.004,0.025-0.004,0.039v13.593   c0,0.829,0.672,1.5,1.5,1.5h5.402c0.721,4.407,4.544,7.784,9.151,7.784c4.602,0,8.419-3.377,9.14-7.784h54.328   c0.721,4.407,4.544,7.784,9.152,7.784c4.602,0,8.42-3.377,9.139-7.784h5.32c0.828,0,1.5-0.671,1.5-1.5V79.811V63.227   C123.408,62.398,122.736,61.727,121.908,61.727z M112.68,61.727H93.244V46.862h15.329L112.68,61.727z M106.821,40.52l0.923,3.343   H92.669c-1.337,0-2.425,1.088-2.425,2.425v16.016c0,1.336,1.088,2.424,2.425,2.424h21.981h5.758v13.584H83.537v-2.498V40.52   H106.821z M21.779,78.311V70h58.758v5.813v2.498H21.779z M46,36H21.779v-5.188c0-1.378,1.121-2.5,2.5-2.5h53.758   c1.379,0,2.5,1.122,2.5,2.5v8.207V67H21.779V39H46c0.828,0,1.5-0.671,1.5-1.5S46.828,36,46,36z M34.829,99.688   c-3.465,0-6.284-2.819-6.284-6.284c0-3.458,2.819-6.271,6.284-6.271c3.458,0,6.271,2.813,6.271,6.271   C41.101,96.869,38.287,99.688,34.829,99.688z M107.449,99.688c-3.466,0-6.285-2.819-6.285-6.284c0-3.458,2.819-6.271,6.285-6.271   c3.458,0,6.271,2.813,6.271,6.271C113.721,96.869,110.907,99.688,107.449,99.688z M120.408,91.903h-3.82   c-0.721-4.399-4.538-7.771-9.139-7.771c-4.607,0-8.431,3.371-9.152,7.771H43.968c-0.721-4.399-4.538-7.771-9.139-7.771   c-4.606,0-8.43,3.371-9.151,7.771h-3.902V81.311h60.262h38.371V91.903z"/><path d="M94.973,70.367h5.701c0.828,0,1.5-0.671,1.5-1.5s-0.672-1.5-1.5-1.5h-5.701c-0.828,0-1.5,0.671-1.5,1.5   S94.145,70.367,94.973,70.367z"/><path d="M26.5,51.5c0,0.829,0.672,1.5,1.5,1.5h44c0.828,0,1.5-0.671,1.5-1.5S72.828,50,72,50H28C27.172,50,26.5,50.671,26.5,51.5z"/></g></svg>