<svg width="71" height="82" viewBox="0 0 71 82" fill="none" xmlns="http://www.w3.org/2000/svg">
<path d="M70.2164 11.7023L35.1082 0L4.31584e-05 11.7023V43.1185C-0.0108411 50.0526 2.0372 56.8335 5.88484 62.6022C9.73142 68.3709 15.2055 72.8678 21.6109 75.5228L35.1082 81.1526L48.6056 75.5228C55.011 72.8678 60.4848 68.3709 64.3316 62.6022C68.1791 56.8335 70.2273 50.0526 70.2164 43.1185V11.7023ZM62.4151 43.1185C62.4241 48.5108 60.8323 53.7843 57.8419 58.2703C54.8506 62.7564 50.5958 66.2539 45.6145 68.3182L35.1085 72.7009L24.6025 68.3191V68.3182C19.6212 66.2538 15.3664 62.7564 12.375 58.2703C9.38452 53.7843 7.79281 48.5109 7.80186 43.1185V17.3215L35.1082 8.21956L62.4146 17.3215L62.4151 43.1185Z" fill="black"/>
<path d="M23 49.0022L46.0022 26" stroke="black" stroke-width="8"/>
<path d="M24 26.0022L47 49.0022" stroke="black" stroke-width="8"/>
</svg>
