<svg xmlns="http://www.w3.org/2000/svg" xmlns:xlink="http://www.w3.org/1999/xlink" version="1.1" x="0px" y="0px" viewBox="0 0 90 112.5" style="enable-background:new 0 0 90 90;" xml:space="preserve"><path d="M50.793945,67.15918H39.206055c-0.552246,0-1,0.447754-1,1s0.447754,1,1,1h11.587891c0.552246,0,1-0.447754,1-1  S51.346191,67.15918,50.793945,67.15918z"/><path d="M75.874512,61.893555c-0.26709-0.333252-0.643738-0.627808-1.089172-0.88385  c0.72998-0.615601,1.204407-1.525024,1.204407-2.552185V20.47998c0-1.848633-1.504395-3.353027-3.353516-3.353027H17.36377  c-1.849121,0-3.353516,1.504395-3.353516,3.353027V58.45752c0,1.027161,0.474426,1.936584,1.204407,2.552185  c-0.445435,0.256042-0.822083,0.550598-1.089172,0.88385l-6.125977,7.64502c-0.474609,0.591797-0.580078,1.27832-0.289551,1.883789  c0.449219,0.935547,1.741699,1.450684,3.640137,1.450684h67.299805c1.898438,0,3.190918-0.515137,3.640137-1.450684  c0.290527-0.605469,0.185059-1.291992-0.289551-1.883789L75.874512,61.893555z M16.010254,20.47998  c0-0.746094,0.607422-1.353027,1.353516-1.353027H72.63623c0.746094,0,1.353516,0.606934,1.353516,1.353027V58.45752  c0,0.746094-0.607422,1.353027-1.353516,1.353027H17.36377c-0.746094,0-1.353516-0.606934-1.353516-1.353027V20.47998z   M78.649902,70.873047H11.350098c-0.867188,0-1.391602-0.137695-1.657715-0.248535l5.993652-7.47998  c0.446289-0.557129,2.385254-1.333984,4.528809-1.333984h49.570313c2.143555,0,4.08252,0.776855,4.528809,1.333984  l5.990723,7.481445C80.037109,70.736816,79.513672,70.873047,78.649902,70.873047z"/><path d="M31.628906,49.736816h26.741699c0.552246,0,1-0.447754,1-1V29.700195c0-0.552246-0.447754-1-1-1H31.628906  c-0.552246,0-1,0.447754-1,1v19.036621C30.628906,49.289063,31.07666,49.736816,31.628906,49.736816z M32.628906,30.700195  h24.741699v1.31543l-12.371094,6.088379l-12.370605-6.088379V30.700195z M32.628906,34.245056l11.929199,5.871155  c0.13916,0.068359,0.290039,0.102539,0.441406,0.102539s0.302246-0.03418,0.441406-0.102539l11.929688-5.871155v13.49176H32.628906  V34.245056z"/></svg>