<svg width="71" height="82" viewBox="0 0 71 82" fill="none" xmlns="http://www.w3.org/2000/svg">
<path d="M70.8079 42.0388V11.7023L35.6997 0L0.591537 11.7023V42.0388C0.567955 48.5631 2.37293 54.9629 5.80227 60.5138C9.23182 66.0638 14.147 70.5426 19.9916 73.4416L35.6993 81.2439L51.4069 73.4416C57.2518 70.5429 62.167 66.064 65.5963 60.5138C69.0258 54.9629 70.8307 48.5629 70.807 42.0388H70.8079ZM47.9103 66.524L35.7 72.5702L23.4897 66.524C18.9337 64.2646 15.1034 60.7725 12.435 56.4443C9.76564 52.115 8.36619 47.1246 8.39336 42.0391V17.3333L35.6997 8.23139L63.0061 17.3333V42.0391C63.0333 47.1246 61.6338 52.1152 58.9645 56.4443C56.2961 60.7727 52.4658 64.2647 47.9098 66.524H47.9103Z" fill="black"/>
<path d="M44.8019 35.3167H32.3584L38.5997 19.7133L30.1997 19.7124L22.9698 37.7739C22.4909 38.9766 22.6396 40.338 23.3661 41.4082C24.0936 42.4785 25.3035 43.1198 26.5978 43.1179H39.0422L32.801 58.7214H41.2009L48.4172 40.6599V40.6608C48.8952 39.4608 48.7473 38.1013 48.0235 37.0318C47.3006 35.9615 46.0934 35.3193 44.8018 35.3166L44.8019 35.3167Z" fill="black"/>
</svg>
