<svg xmlns="http://www.w3.org/2000/svg" data-name="Layer 1" viewBox="0 0 128 160" x="0px" y="0px"><title>Miscellaneous 30 final..</title><path d="M113,124V4a4,4,0,0,0-4-4H19a4,4,0,0,0-4,4V124a4,4,0,0,0,4,4h90A4,4,0,0,0,113,124ZM19,4h90V56H19Zm0,56h90v64H19Z"/><path d="M89.49,18.66l-9-10A2.05,2.05,0,0,0,79,8H39a2,2,0,0,0-2,2V40a2.17,2.17,0,0,0,.62,1.44l0,0,11,10A2,2,0,0,0,50,52H88a2,2,0,0,0,2-2V20a2.26,2.26,0,0,0,0-.34A1.57,1.57,0,0,0,89.49,18.66ZM78.11,12l5.4,6H73.83l-6-6ZM62.17,12l6,6H63.83l-6-6ZM71,22V36H65V22ZM48,45.48l-7-6.36V14.33l7,7ZM44.33,12h7.84l6,6H50.33ZM86,48H52V22h9V38a2,2,0,0,0,2,2H73a2,2,0,0,0,2-2V22H86Z"/><path d="M25,76H61a2,2,0,0,0,0-4H25a2,2,0,0,0,0,4Z"/><path d="M25,96H61a2,2,0,0,0,0-4H25a2,2,0,0,0,0,4Z"/><path d="M61,106H27a4,4,0,0,0-4,4v6a4,4,0,0,0,4,4H61a4,4,0,0,0,4-4v-6A4,4,0,0,0,61,106ZM27,116v-6H61v6Z"/><path d="M101.64,79.75a10.93,10.93,0,0,1-1.44-1,10.61,10.61,0,0,1,.57-1.77c.63-1.63,1.41-3.66.22-5.3s-3.39-1.53-5.14-1.44a10.58,10.58,0,0,1-1.83,0,10.81,10.81,0,0,1-.55-1.72c-.45-1.71-1-3.84-3-4.48s-3.58.74-4.93,1.83A9.79,9.79,0,0,1,84,67a9.79,9.79,0,0,1-1.56-1.12c-1.35-1.09-3-2.45-4.93-1.83s-2.52,2.77-3,4.48A10.81,10.81,0,0,1,74,70.22a10.73,10.73,0,0,1-1.83,0c-1.75-.1-3.94-.22-5.14,1.44s-.41,3.67.22,5.3a13.66,13.66,0,0,1,.6,1.74,10.26,10.26,0,0,1-1.46,1.05C64.86,80.71,63,81.91,63,84s1.86,3.29,3.36,4.25a10.93,10.93,0,0,1,1.44,1A10.61,10.61,0,0,1,67.23,91c-.63,1.63-1.41,3.66-.22,5.3s3.38,1.53,5.14,1.44a10.83,10.83,0,0,1,1.83,0,10.81,10.81,0,0,1,.55,1.72c.45,1.71,1,3.84,3,4.48s3.58-.74,4.93-1.83A9.79,9.79,0,0,1,84,101a9.79,9.79,0,0,1,1.56,1.12c1.11.9,2.45,2,4,2a3.14,3.14,0,0,0,1-.16c2-.64,2.52-2.77,3-4.48A10.81,10.81,0,0,1,94,97.78a10.83,10.83,0,0,1,1.83,0c1.75.1,3.94.22,5.14-1.44s.41-3.67-.22-5.3a13.66,13.66,0,0,1-.6-1.74,10.26,10.26,0,0,1,1.46-1.05c1.5-1,3.36-2.16,3.36-4.25S103.14,80.71,101.64,79.75Zm-2.16,5.14c-1.3.83-2.64,1.7-3.1,3.13s.11,3,.67,4.46c.15.38.36.93.48,1.34-.44,0-1,0-1.45,0-1.56-.09-3.18-.18-4.43.73s-1.64,2.45-2,4c-.11.4-.26,1-.41,1.41-.35-.24-.79-.6-1.1-.85-1.18-1-2.51-2-4.08-2s-2.91,1.08-4.08,2c-.31.25-.75.61-1.1.85-.15-.42-.31-1-.41-1.41-.4-1.5-.81-3.06-2-4s-2.86-.82-4.43-.73c-.41,0-1,.05-1.45,0,.12-.42.33-1,.48-1.35.57-1.47,1.15-3,.67-4.46s-1.81-2.3-3.1-3.13c-.37-.24-.93-.6-1.28-.89.36-.29.91-.64,1.28-.89,1.3-.83,2.64-1.7,3.1-3.13s-.11-3-.67-4.46c-.15-.38-.36-.93-.48-1.34.44,0,1,0,1.45,0,1.56.09,3.18.18,4.43-.73s1.64-2.45,2-4c.11-.4.26-1,.41-1.41.35.24.79.6,1.1.85,1.18,1,2.51,2,4.08,2s2.91-1.08,4.08-2c.31-.25.75-.61,1.1-.85.15.42.31,1,.41,1.41.4,1.5.81,3.06,2,4s2.86.82,4.43.73c.41,0,1-.05,1.45,0-.12.42-.33,1-.48,1.35-.57,1.47-1.15,3-.67,4.46s1.81,2.3,3.1,3.13c.38.24.93.6,1.28.89C100.4,84.29,99.85,84.64,99.47,84.89Z"/><path d="M89.34,78.08l-7.6,7.6-3.07-3.07a2,2,0,0,0-2.83,2.83l4.48,4.48a2,2,0,0,0,2.83,0l9-9a2,2,0,0,0-2.83-2.83Z"/></svg>