<svg xmlns="http://www.w3.org/2000/svg" xmlns:xlink="http://www.w3.org/1999/xlink" version="1.1" x="0px" y="0px" viewBox="0 0 66 82.5" style="enable-background:new 0 0 66 66;" xml:space="preserve"><path d="M64,4.25H2C1.59,4.25,1.25,4.59,1.25,5v50c0,0.41,0.34,0.75,0.75,0.75h21.4l-3.75,4.5H17c-0.41,0-0.75,0.34-0.75,0.75  s0.34,0.75,0.75,0.75h32c0.41,0,0.75-0.34,0.75-0.75s-0.34-0.75-0.75-0.75h-2.65l-3.75-4.5H64c0.41,0,0.75-0.34,0.75-0.75V5  C64.75,4.59,64.41,4.25,64,4.25z M2.75,5.75h60.5v40.5H2.75V5.75z M44.4,60.25H21.6l3.75-4.5h15.3L44.4,60.25z M63.25,54.25H2.75  v-6.5h60.5V54.25z"/><path d="M60,8.25H6C5.59,8.25,5.25,8.59,5.25,9v34c0,0.41,0.34,0.75,0.75,0.75h54c0.41,0,0.75-0.34,0.75-0.75V9  C60.75,8.59,60.41,8.25,60,8.25z M59.25,42.25H6.75V9.75h52.5V42.25z"/><circle cx="33" cy="51" r="1"/><path d="M19.76,28.71l1.99,0.66c0.23,0.76,0.53,1.49,0.9,2.19l-0.94,1.88c-0.14,0.29-0.09,0.64,0.14,0.87l2.83,2.83  c0.23,0.23,0.58,0.28,0.87,0.14l1.88-0.94c0.7,0.37,1.43,0.68,2.19,0.9l0.67,1.99c0.1,0.31,0.39,0.51,0.71,0.51h4  c0.32,0,0.61-0.21,0.71-0.51l0.66-1.99c0.76-0.23,1.49-0.53,2.19-0.9l1.88,0.94c0.29,0.14,0.64,0.09,0.87-0.14l2.83-2.83  c0.23-0.23,0.29-0.58,0.14-0.87l-0.94-1.88c0.37-0.69,0.68-1.43,0.91-2.19l1.99-0.67c0.31-0.1,0.51-0.39,0.51-0.71v-4  c0-0.32-0.21-0.61-0.51-0.71l-1.99-0.67c-0.23-0.76-0.53-1.49-0.91-2.19l0.94-1.88c0.14-0.29,0.09-0.64-0.14-0.87l-2.83-2.83  c-0.23-0.23-0.58-0.29-0.87-0.14l-1.88,0.94c-0.7-0.37-1.43-0.68-2.19-0.91l-0.66-1.99c-0.1-0.31-0.39-0.51-0.71-0.51h-4  c-0.32,0-0.61,0.21-0.71,0.51l-0.67,1.99c-0.76,0.23-1.49,0.53-2.19,0.91l-1.88-0.94c-0.29-0.14-0.64-0.09-0.87,0.14l-2.83,2.83  c-0.23,0.23-0.29,0.58-0.14,0.87l0.94,1.88c-0.37,0.7-0.68,1.43-0.9,2.19l-1.99,0.66c-0.31,0.1-0.51,0.39-0.51,0.71v4  C19.25,28.32,19.46,28.61,19.76,28.71z M20.75,24.54l1.86-0.62c0.24-0.08,0.42-0.28,0.49-0.52c0.24-0.9,0.59-1.77,1.06-2.57  c0.13-0.22,0.14-0.49,0.02-0.71l-0.88-1.75l2.06-2.06l1.75,0.88c0.23,0.11,0.49,0.1,0.71-0.02c0.8-0.47,1.66-0.82,2.56-1.06  c0.25-0.06,0.44-0.25,0.52-0.49l0.62-1.86h2.92l0.62,1.86c0.08,0.24,0.28,0.42,0.52,0.49c0.9,0.24,1.77,0.59,2.56,1.06  c0.22,0.13,0.49,0.14,0.71,0.02l1.75-0.88l2.06,2.06l-0.88,1.75c-0.11,0.23-0.1,0.5,0.02,0.71c0.47,0.8,0.82,1.66,1.06,2.57  c0.06,0.25,0.25,0.44,0.49,0.52l1.86,0.62v2.92l-1.86,0.62c-0.24,0.08-0.42,0.28-0.49,0.52c-0.24,0.91-0.59,1.77-1.06,2.56  c-0.13,0.22-0.14,0.49-0.02,0.71l0.88,1.75l-2.06,2.06l-1.75-0.88c-0.23-0.11-0.5-0.1-0.71,0.02c-0.8,0.47-1.66,0.82-2.57,1.06  c-0.25,0.06-0.44,0.25-0.52,0.49l-0.62,1.86h-2.92l-0.62-1.86c-0.08-0.24-0.28-0.42-0.52-0.49c-0.9-0.24-1.77-0.59-2.57-1.06  c-0.22-0.13-0.49-0.14-0.71-0.02l-1.75,0.88l-2.06-2.06l0.88-1.75c0.11-0.23,0.1-0.5-0.02-0.71c-0.47-0.8-0.82-1.66-1.06-2.56  c-0.06-0.25-0.25-0.44-0.49-0.52l-1.86-0.62V24.54z"/><path d="M33,33.75c4.27,0,7.75-3.48,7.75-7.75s-3.48-7.75-7.75-7.75s-7.75,3.48-7.75,7.75S28.73,33.75,33,33.75z M33,19.75  c3.45,0,6.25,2.8,6.25,6.25s-2.8,6.25-6.25,6.25s-6.25-2.8-6.25-6.25S29.55,19.75,33,19.75z"/></svg>